<?xml version="1.0" encoding="UTF-8" standalone="no"?>
<!-- Generator: Adobe Illustrator 18.1.0, SVG Export Plug-In . SVG Version: 6.00 Build 0)  -->

<svg
   xmlns:dc="http://purl.org/dc/elements/1.1/"
   xmlns:cc="http://creativecommons.org/ns#"
   xmlns:rdf="http://www.w3.org/1999/02/22-rdf-syntax-ns#"
   xmlns:svg="http://www.w3.org/2000/svg"
   xmlns="http://www.w3.org/2000/svg"
   xmlns:sodipodi="http://sodipodi.sourceforge.net/DTD/sodipodi-0.dtd"
   xmlns:inkscape="http://www.inkscape.org/namespaces/inkscape"
   version="1.1"
   id="Layer_1"
   x="0px"
   y="0px"
   viewBox="0 0 181 209"
   enable-background="new 0 0 320 240"
   xml:space="preserve"
   inkscape:version="0.92.3 (2405546, 2018-03-11)"
   sodipodi:docname="ballot.svg"
   width="181"
   height="209"
   inkscape:export-filename="/home/mc/Papers/Projects/Forks/hexbin/hexagons/mongodb.png"
   inkscape:export-xdpi="90"
   inkscape:export-ydpi="90"><metadata
     id="metadata65"><rdf:RDF><cc:Work
         rdf:about=""><dc:format>image/svg+xml</dc:format><dc:type
           rdf:resource="http://purl.org/dc/dcmitype/StillImage" /><dc:title></dc:title></cc:Work></rdf:RDF></metadata><defs
     id="defs63" /><sodipodi:namedview
     pagecolor="#ffffff"
     bordercolor="#666666"
     borderopacity="1"
     objecttolerance="10"
     gridtolerance="10"
     guidetolerance="10"
     inkscape:pageopacity="0"
     inkscape:pageshadow="2"
     inkscape:window-width="1009"
     inkscape:window-height="1034"
     id="namedview61"
     showgrid="false"
     fit-margin-top="0"
     fit-margin-left="0"
     fit-margin-right="0"
     fit-margin-bottom="0"
     inkscape:zoom="1.6562485"
     inkscape:cx="122.03258"
     inkscape:cy="70.077921"
     inkscape:window-x="-4"
     inkscape:window-y="25"
     inkscape:window-maximized="0"
     inkscape:current-layer="Layer_1" /><polygon
     points="251,171.7 160.5,224 70,171.7 70,67.2 160.5,15 251,67.2 "
     id="polygon3"
     style="fill:#4d4d4d;fill-opacity:1"
     transform="translate(-70,-15)" /><polygon
     points="70,171.7 70,67.2 160.5,15 251,67.2 251,171.7 160.5,224 "
     id="polygon3-3"
     style="fill:#ffffff;fill-opacity:1"
     transform="matrix(0.88665879,0,0,0.88665879,-51.808736,-1.4557254)" /><path
     id="path5637"
     d="M 116.17377,126.75059 H 85.365251 c -0.941372,0 -1.711585,0.77022 -1.711585,1.71159 v 6.84634 c 0,0.94137 0.770213,1.71158 1.711585,1.71158 h 30.808519 c 0.94137,0 1.71158,-0.77021 1.71158,-1.71158 v -6.84634 c 0,-0.94137 -0.77021,-1.71159 -1.71158,-1.71159 z m -49.63595,11.98109 h 6.846339 c 1.882743,0 3.423169,-1.54042 3.423169,-3.42316 v -6.84634 c 0,-1.88275 -1.540426,-3.42317 -3.423169,-3.42317 H 66.53782 c -1.882743,0 -3.423168,1.54042 -3.423168,3.42317 v 6.84634 c 0,1.88274 1.540425,3.42316 3.423168,3.42316 z m 0,-54.770697 h 6.846339 c 1.882743,0 3.423169,-1.540426 3.423169,-3.423169 v -6.846339 c 0,-1.882743 -1.540426,-3.423169 -3.423169,-3.423169 H 66.53782 c -1.882743,0 -3.423168,1.540426 -3.423168,3.423169 v 6.846339 c 0,1.882743 1.540425,3.423169 3.423168,3.423169 z m 18.827431,-1.711585 h 30.808519 c 0.94137,0 1.71158,-0.770213 1.71158,-1.711584 v -6.846339 c 0,-0.941371 -0.77021,-1.711584 -1.71158,-1.711584 H 85.365251 c -0.941372,0 -1.711585,0.770213 -1.711585,1.711584 v 6.846339 c 0,0.941371 0.770213,1.711584 1.711585,1.711584 z M 131.57803,49.729291 H 49.421975 c -3.786881,0 -6.846338,3.059458 -6.846338,6.846339 v 95.84873 c 0,3.78689 3.059457,6.84635 6.846338,6.84635 h 82.156055 c 3.78688,0 6.84633,-3.05946 6.84633,-6.84635 V 56.57563 c 0,-3.786881 -3.05945,-6.846339 -6.84633,-6.846339 z m -3.42317,99.271899 H 52.845144 V 59.998799 H 128.15486 Z M 71.373047,111.00402 c 0.449291,0.44929 1.176714,0.44929 1.626005,0 L 86.734518,97.396919 c 0.449291,-0.44929 0.449291,-1.176712 0,-1.626003 l -2.695745,-2.717141 c -0.449291,-0.449291 -1.176715,-0.449291 -1.626006,0 l -10.183928,10.098345 -4.40733,-4.471511 c -0.449291,-0.44929 -1.176714,-0.44929 -1.626005,0 l -2.717141,2.695741 c -0.449291,0.44929 -0.449291,1.17672 0,1.62601 z M 116.17377,99.365239 H 93.366908 c -0.406501,1.069741 -0.984161,2.075301 -1.818558,2.888301 l -7.423998,7.38121 h 32.049418 c 0.94137,0 1.71158,-0.77021 1.71158,-1.71159 v -6.84633 c 0,-0.94137 -0.77021,-1.711591 -1.71158,-1.711591 z"
     inkscape:connector-curvature="0"
     style="fill:#4d4d4d;stroke-width:0.21394807" /></svg>